
        <svg version="1.1" width="300" height="200" xmlns="http://www.w3.org/2000/svg">

            <polygon points="219.29096493834652,133.70125742738173 178.70125742738173,174.29096493834652 121.29874257261827,174.29096493834652 80.7090350616535,133.70125742738173 80.70903506165348,76.29874257261827 121.29874257261822,35.70903506165351 178.70125742738176,35.70903506165351 219.2909649383465,76.29874257261822" fill="Red" />
            <!-- <polygon points="140 113, 180 113, 210 140, 210 180, 180 210, 140 210, 113 180, 113 140" fill="Red" /> -->
            <!-- <polygon points="100 20, 190 20, 250 80, 250 160, 160 250, 80 250, 20 190, 20 100" fill="Red" /> -->
            <!-- <polygon points="40 13, 80 13, 110 40, 110 80, 80 110, 40 110, 13 80, 13 40" fill="Red" /> -->

            <text x="150" y="125" font-size="60" text-anchor="middle" fill="Orange">JDJ</text>

        </svg>
        